<svg width="41" height="54" viewBox="0 0 41 54" fill="none" xmlns="http://www.w3.org/2000/svg">
<path d="M20.4015 26.2364C26.3661 26.2364 31.2017 20.3633 31.2017 13.1183C31.2017 5.87316 29.6141 0 20.4015 0C11.189 0 9.60107 5.87316 9.60107 13.1183C9.60107 20.3633 14.4367 26.2364 20.4015 26.2364Z" fill="white"/>
<path d="M0.00212383 46.2663C0.000284539 45.8246 -0.00155475 46.1419 0.00212383 46.2663V46.2663Z" fill="white"/>
<path d="M40.8 46.6113C40.8059 46.4904 40.802 45.7723 40.8 46.6113V46.6113Z" fill="white"/>
<path d="M40.7771 45.7365C40.5771 33.1156 38.9288 29.5193 26.3154 27.2429C26.3154 27.2429 24.5398 29.5054 20.4014 29.5054C16.263 29.5054 14.4872 27.2429 14.4872 27.2429C2.01144 29.4945 0.262887 33.0375 0.0329755 45.3265C0.0141228 46.33 0.00538619 46.3827 0.00201416 46.2662C0.00278053 46.4845 0.00369984 46.8882 0.00369984 47.5922C0.00369984 47.5922 3.00665 53.6459 20.4014 53.6459C37.7959 53.6459 40.7992 47.5922 40.7992 47.5922C40.7992 47.1399 40.7995 46.8254 40.8 46.6114C40.7966 46.6835 40.7898 46.5438 40.7771 45.7365Z" fill="white"/>
</svg>
