<svg width="188" height="188" viewBox="0 0 188 188" fill="none" xmlns="http://www.w3.org/2000/svg">
<path d="M28.7584 22.186C28.7533 22.186 28.7476 22.186 28.7426 22.186C26.9645 22.186 25.2921 22.8792 24.0293 24.1388C22.7525 25.4124 22.0493 27.1082 22.0493 28.9135V129.791C22.0493 133.491 25.0706 136.508 28.785 136.517C44.4441 136.554 70.6794 139.818 88.7781 158.758V53.1865C88.7781 51.9325 88.4578 50.7545 87.8533 49.7797C72.9987 25.8574 44.453 22.2227 28.7584 22.186Z" fill="white"/>
<path d="M165.951 129.791V28.9129C165.951 27.1076 165.248 25.4118 163.971 24.1382C162.709 22.8785 161.035 22.1854 159.259 22.1854C159.253 22.1854 159.247 22.1854 159.242 22.1854C143.548 22.2227 115.003 25.8574 100.147 49.7797C99.5429 50.7545 99.2232 51.9325 99.2232 53.1865V158.757C117.322 139.817 143.557 136.554 159.216 136.516C162.93 136.507 165.951 133.49 165.951 129.791Z" fill="white"/>
<path d="M181.274 45.45H176.396V129.791C176.396 139.236 168.701 146.938 159.241 146.961C145.959 146.993 124.058 149.59 108.548 164.27C135.373 157.702 163.652 161.972 179.768 165.644C181.78 166.103 183.86 165.629 185.472 164.344C187.078 163.062 188 161.146 188 159.09V52.1762C188.001 48.4675 184.983 45.45 181.274 45.45Z" fill="white"/>
<path d="M11.6041 129.791V45.45H6.72625C3.01814 45.45 0 48.4675 0 52.1762V159.088C0 161.145 0.921646 163.06 2.5282 164.342C4.13918 165.627 6.21668 166.102 8.23215 165.642C24.3483 161.969 52.6275 157.7 79.4515 164.268C63.9417 149.589 42.0412 146.992 28.759 146.961C19.3001 146.938 11.6041 139.236 11.6041 129.791Z" fill="white"/>
</svg>
